# xmcd
#
# Track frame offsets: 
#        150
#        12054
#        35635
#        49146
#        59548
#        82922
#        91155
#        104209
#        114729
#        145400
#        157689
#        168617
#        176029
#
# Disc length: 2884 seconds
#
# Revision: 0
# Processed by: cddbd v1.5.2PL0 Copyright (c) Steve Scherf et al.
# Submitted via: ExactAudioCopy v0.99pb5
#
DISCID=ac0b420d
DTITLE=Fats Domino - Blueberry Hill [Disc 2]
DYEAR=1900
DGENRE=Blues
TTITLE0=01-I want to walk you home
TTITLE1=02-Another Mule
TTITLE2=03-Poor Me
TTITLE3=04-Going To Mardi Gras
TTITLE4=05-Sentimental Journey (Instrumental)
TTITLE5=06-The Sheik Of Araby
TTITLE6=07-I'm In The Mood For Love
TTITLE7=08-I'm Gonna Be A Wheel Someday
TTITLE8=09-Let The Four Winds Blow
TTITLE9=10-Valley Of Tears
TTITLE10=11-Blueberry Hill
TTITLE11=12-When The Saints Go Marching In
TTITLE12=13-Jambalaya (On Theb Bayou)
EXTD=
EXTT0=
EXTT1=
EXTT2=
EXTT3=
EXTT4=
EXTT5=
EXTT6=
EXTT7=
EXTT8=
EXTT9=
EXTT10=
EXTT11=
EXTT12=
PLAYORDER=
